# xmcd
#
# Track frame offsets: 
#        182
#        11842
#        23962
#        34107
#        49145
#        63305
#        76075
#        95167
#        106842
#        120700
#        134632
#        146105
#
# Disc length: 2139 seconds
#
# Revision: 1
# Processed by: cddbd v1.5.2PL0 Copyright (c) Steve Scherf et al.
# Submitted via: ExactAudioCopyFreeDBPlugin 1.0
#
DISCID=a708590c
DTITLE=Dance And Techno Kids - Die Coole Kinderparty  CD1
DYEAR=1996
DGENRE=Kinderlieder
TTITLE0=Die Affen Rasen Durch Den Wald
TTITLE1=Ein Männlein Steht Im Walde
TTITLE2=Eine Seefahrt, Die Ist Lustig
TTITLE3=Irgendwie Anders
TTITLE4=Meister Jakob
TTITLE5=Meine Oma Fährt Im Hühnerstall Motorrad
TTITLE6=Der Mond Ist Aufgegangen
TTITLE7=Hänsel Und Gretel
TTITLE8=Horch, Was Kommt Von Draussen Rein
TTITLE9=Ein Vogel Wollte Hochzeit Machen
TTITLE10=Der Kuckuck Und Der Esel
TTITLE11=Fang Mich Doch, Du Eierloch
EXTD=
EXTT0=
EXTT1=
EXTT2=
EXTT3=
EXTT4=
EXTT5=
EXTT6=
EXTT7=
EXTT8=
EXTT9=
EXTT10=
EXTT11=
PLAYORDER=
